<svg width="24" height="24" viewBox="0 0 24 24" fill="none" xmlns="http://www.w3.org/2000/svg">
<path fill-rule="evenodd" clip-rule="evenodd" d="M10.2321 12.0002L4.75216 17.4801C4.264 17.9682 4.264 18.7597 4.75216 19.2479C5.24031 19.736 6.03177 19.736 6.51992 19.2479L11.9998 13.7679L17.4798 19.2479C17.9679 19.736 18.7594 19.736 19.2475 19.2479C19.7357 18.7597 19.7357 17.9683 19.2475 17.4801L13.7676 12.0002L19.2478 6.51993C19.736 6.03178 19.736 5.24032 19.2478 4.75216C18.7597 4.26401 17.9682 4.26401 17.4801 4.75216L11.9998 10.2324L6.51963 4.7522C6.03147 4.26405 5.24001 4.26405 4.75186 4.7522C4.2637 5.24036 4.2637 6.03182 4.75186 6.51997L10.2321 12.0002Z" fill="#555555"/>
</svg>
