<svg width="24" height="24" viewBox="0 0 24 24" fill="none" xmlns="http://www.w3.org/2000/svg">
<path d="M11.4453 3.3707C11.7812 3.14677 12.2188 3.14676 12.5547 3.3707L19.7519 8.16887C20.3457 8.56469 20.3457 9.43715 19.7519 9.83297L12.5547 14.6311C12.2188 14.8551 11.7812 14.8551 11.4453 14.6311L4.24805 9.83297C3.65432 9.43715 3.65432 8.56469 4.24805 8.16887L11.4453 3.3707Z" fill="#111111"/>
<path fill-rule="evenodd" clip-rule="evenodd" d="M6.14789 12.9007L4.24803 14.1673C3.6543 14.5631 3.6543 15.4356 4.24803 15.8314L11.4453 20.6296C11.7812 20.8535 12.2188 20.8535 12.5547 20.6296L19.7519 15.8314C20.3457 15.4356 20.3457 14.5631 19.7519 14.1673L17.8521 12.9007L13.3867 15.8776C12.547 16.4375 11.453 16.4375 10.6132 15.8776L6.14789 12.9007ZM7.49997 11.9993L11.4453 9.36912C11.7812 9.14519 12.2188 9.14519 12.5547 9.36912L16.5 11.9993L12.5547 14.6296C12.2188 14.8535 11.7812 14.8535 11.4453 14.6296L7.49997 11.9993Z" fill="#111111"/>
</svg>
