<svg width="388" height="22" viewBox="0 0 388 22" fill="none" xmlns="http://www.w3.org/2000/svg">
<path d="M371.09 16.9082V5.24219H374.123V7.2832H374.252C374.747 5.91895 375.93 5.0918 377.501 5.0918C379.104 5.0918 380.298 5.94043 380.685 7.2832H380.793C381.277 5.96191 382.61 5.0918 384.321 5.0918C386.483 5.0918 388 6.52051 388 9.06641V16.9082H384.816V9.68945C384.826 8.35742 384.03 7.71289 382.987 7.71289C381.793 7.71289 381.083 8.54004 381.094 9.77539V16.9082H377.996V9.60352C378.007 8.4541 377.275 7.71289 376.189 7.71289C375.102 7.71289 374.263 8.58301 374.274 9.9043V16.9082H371.09Z" fill="#2A2A2A"/>
<path d="M363.733 17.1445C360.15 17.1338 357.956 14.8242 357.967 11.1289C357.956 7.53027 360.183 5.0918 363.603 5.0918C366.669 5.0918 369.089 7.02539 369.089 11V11.9023H361.108C361.108 13.6641 362.151 14.749 363.797 14.7598C364.883 14.749 365.658 14.2764 365.97 13.5781H369.003C368.552 15.7373 366.615 17.1338 363.733 17.1445ZM361.108 9.9043H366.078C366.067 8.48633 365.088 7.46582 363.668 7.47656C362.205 7.46582 361.172 8.56152 361.108 9.9043Z" fill="#2A2A2A"/>
<path d="M356.568 5.24219V7.62695H354.374V13.3203C354.363 14.2549 354.826 14.4805 355.471 14.502C355.794 14.502 356.353 14.4697 356.74 14.4375V16.9512C356.396 17.0049 355.826 17.0693 355.041 17.0586C352.739 17.0693 351.168 16.0381 351.19 13.7715V7.62695H349.576V5.24219H351.19V2.44922H354.374V5.24219H356.568Z" fill="#2A2A2A"/>
<path d="M345.209 8.70117C345.069 7.88477 344.359 7.3584 343.294 7.34766C342.262 7.3584 341.476 7.8418 341.487 8.55078C341.476 9.07715 341.885 9.48535 342.993 9.71094L345.08 10.1406C347.35 10.6133 348.447 11.623 348.458 13.2988C348.447 15.5977 346.382 17.1338 343.273 17.1445C340.121 17.1338 338.271 15.7266 338.002 13.4492H341.207C341.358 14.3623 342.1 14.835 343.273 14.8457C344.435 14.835 345.209 14.373 345.209 13.6211C345.209 13.0195 344.714 12.6436 343.617 12.418L341.681 12.0312C339.454 11.5908 338.314 10.4521 338.325 8.72266C338.314 6.48828 340.239 5.0918 343.251 5.0918C346.199 5.0918 348.027 6.48828 348.199 8.70117H345.209Z" fill="#2A2A2A"/>
<path d="M328.019 21.291C327.396 21.2803 326.815 21.2695 326.406 21.2266V18.7559C326.815 18.7881 327.299 18.7988 327.697 18.7988C328.331 18.7988 328.837 18.7344 329.224 17.7246L329.418 17.2305L325.223 5.24219H328.557L331.01 13.8359H331.139L333.613 5.24219H336.991L332.43 18.1973C331.763 20.0771 330.483 21.2803 328.019 21.291Z" fill="#2A2A2A"/>
<path d="M320.792 5.80078C320.662 4.56543 319.684 3.8457 318.102 3.8457C316.467 3.8457 315.553 4.59766 315.542 5.62891C315.531 6.75684 316.693 7.26172 318.038 7.5625L319.436 7.90625C322.104 8.51855 324.094 9.87207 324.105 12.4609C324.094 15.3076 321.878 17.1338 318.081 17.123C314.316 17.1338 311.917 15.3936 311.82 12.0527H314.961C315.069 13.6211 316.317 14.416 318.038 14.416C319.737 14.416 320.835 13.6211 320.835 12.4609C320.835 11.3975 319.866 10.9033 318.167 10.4844L316.467 10.0762C313.843 9.43164 312.229 8.12109 312.229 5.84375C312.218 3.01855 314.714 1.13867 318.124 1.13867C321.577 1.13867 323.846 3.05078 323.89 5.80078H320.792Z" fill="#2A2A2A"/>
<path d="M297.212 10.1621V16.9082H294.028V5.24219H297.062V7.2832H297.191C297.718 5.94043 298.966 5.0918 300.698 5.0918C303.139 5.0918 304.731 6.75684 304.721 9.47461V16.9082H301.558V10.0332C301.547 8.59375 300.773 7.73438 299.45 7.73438C298.127 7.73438 297.212 8.62598 297.212 10.1621Z" fill="#2A2A2A"/>
<path d="M285.874 21.5273C282.647 21.5273 280.657 20.0771 280.474 17.875H283.615C283.787 18.8096 284.669 19.2285 285.939 19.2285C287.412 19.2285 288.402 18.5947 288.413 16.9727V14.8457H288.262C287.842 15.791 286.81 16.7471 284.927 16.7363C282.292 16.7471 280.173 14.8887 280.173 11C280.173 7.05762 282.346 5.0918 284.927 5.0918C286.885 5.0918 287.832 6.25195 288.262 7.19727H288.391V5.24219H291.554V17.0371C291.543 20.0127 289.198 21.5273 285.874 21.5273ZM283.443 11.043C283.432 13.0625 284.303 14.3408 285.917 14.3516C287.509 14.3408 288.413 13.1162 288.413 11.043C288.413 8.96973 287.52 7.62695 285.917 7.62695C284.293 7.62695 283.432 9.03418 283.443 11.043Z" fill="#2A2A2A"/>
<path d="M274.967 16.9082V5.24219H278.151V16.9082H274.967ZM274.816 2.10547C274.816 1.20312 275.602 0.483398 276.559 0.472656C277.506 0.483398 278.291 1.20312 278.28 2.10547C278.291 2.98633 277.506 3.7168 276.559 3.7168C275.602 3.7168 274.816 2.98633 274.816 2.10547Z" fill="#2A2A2A"/>
<path d="M269.761 8.70117C269.621 7.88477 268.911 7.3584 267.846 7.34766C266.813 7.3584 266.028 7.8418 266.039 8.55078C266.028 9.07715 266.437 9.48535 267.545 9.71094L269.632 10.1406C271.901 10.6133 272.999 11.623 273.009 13.2988C272.999 15.5977 270.933 17.1338 267.825 17.1445C264.673 17.1338 262.823 15.7266 262.554 13.4492H265.759C265.91 14.3623 266.652 14.835 267.825 14.8457C268.986 14.835 269.761 14.373 269.761 13.6211C269.761 13.0195 269.266 12.6436 268.169 12.418L266.233 12.0312C264.006 11.5908 262.866 10.4521 262.876 8.72266C262.866 6.48828 264.791 5.0918 267.803 5.0918C270.75 5.0918 272.579 6.48828 272.751 8.70117H269.761Z" fill="#2A2A2A"/>
<path d="M255.733 17.1445C252.151 17.1338 249.957 14.8242 249.968 11.1289C249.957 7.53027 252.184 5.0918 255.604 5.0918C258.67 5.0918 261.09 7.02539 261.09 11V11.9023H253.109C253.109 13.6641 254.152 14.749 255.798 14.7598C256.884 14.749 257.659 14.2764 257.971 13.5781H261.004C260.553 15.7373 258.616 17.1338 255.733 17.1445ZM253.109 9.9043H258.078C258.068 8.48633 257.089 7.46582 255.669 7.47656C254.206 7.46582 253.173 8.56152 253.109 9.9043Z" fill="#2A2A2A"/>
<path d="M240.545 16.9082H235.059V1.35352H240.609C245.299 1.35352 248.171 4.26465 248.16 9.10938C248.171 13.9756 245.299 16.9082 240.545 16.9082ZM238.286 14.1367H240.416C243.384 14.1367 244.933 12.6006 244.933 9.10938C244.933 5.65039 243.384 4.125 240.437 4.125H238.286V14.1367Z" fill="#2A2A2A"/>
<path d="M221.764 21.5273C218.537 21.5273 216.547 20.0771 216.364 17.875H219.505C219.677 18.8096 220.559 19.2285 221.828 19.2285C223.302 19.2285 224.291 18.5947 224.302 16.9727V14.8457H224.152C223.732 15.791 222.699 16.7471 220.817 16.7363C218.182 16.7471 216.062 14.8887 216.062 11C216.062 7.05762 218.235 5.0918 220.817 5.0918C222.775 5.0918 223.721 6.25195 224.152 7.19727H224.281V5.24219H227.443V17.0371C227.433 20.0127 225.088 21.5273 221.764 21.5273ZM219.333 11.043C219.322 13.0625 220.193 14.3408 221.807 14.3516C223.399 14.3408 224.302 13.1162 224.302 11.043C224.302 8.96973 223.409 7.62695 221.807 7.62695C220.182 7.62695 219.322 9.03418 219.333 11.043Z" fill="#2A2A2A"/>
<path d="M206.532 10.1621V16.9082H203.348V5.24219H206.381V7.2832H206.51C207.037 5.94043 208.285 5.0918 210.017 5.0918C212.459 5.0918 214.051 6.75684 214.04 9.47461V16.9082H210.877V10.0332C210.867 8.59375 210.092 7.73438 208.769 7.73438C207.446 7.73438 206.532 8.62598 206.532 10.1621Z" fill="#2A2A2A"/>
<path d="M190.203 16.9082H186.718L192.118 1.35352H196.27L201.648 16.9082H198.185L197.012 13.3203H191.375L190.203 16.9082ZM192.193 10.8066H196.195L194.248 4.85547H194.14L192.193 10.8066Z" fill="#2A2A2A"/>
<path d="M179.382 21.5273C176.155 21.5273 174.165 20.0771 173.982 17.875H177.123C177.295 18.8096 178.177 19.2285 179.446 19.2285C180.92 19.2285 181.91 18.5947 181.92 16.9727V14.8457H181.77C181.35 15.791 180.318 16.7471 178.435 16.7363C175.8 16.7471 173.681 14.8887 173.681 11C173.681 7.05762 175.854 5.0918 178.435 5.0918C180.393 5.0918 181.34 6.25195 181.77 7.19727H181.899V5.24219H185.061V17.0371C185.051 20.0127 182.706 21.5273 179.382 21.5273ZM176.951 11.043C176.94 13.0625 177.811 14.3408 179.425 14.3516C181.017 14.3408 181.92 13.1162 181.92 11.043C181.92 8.96973 181.028 7.62695 179.425 7.62695C177.801 7.62695 176.94 9.03418 176.951 11.043Z" fill="#2A2A2A"/>
<path d="M164.15 10.1621V16.9082H160.966V5.24219H163.999V7.2832H164.128C164.655 5.94043 165.903 5.0918 167.635 5.0918C170.077 5.0918 171.669 6.75684 171.658 9.47461V16.9082H168.496V10.0332C168.485 8.59375 167.71 7.73438 166.387 7.73438C165.064 7.73438 164.15 8.62598 164.15 10.1621Z" fill="#2A2A2A"/>
<path d="M153.221 17.1445C149.692 17.1338 147.487 14.7168 147.498 11.1074C147.487 7.50879 149.692 5.0918 153.221 5.0918C156.76 5.0918 158.954 7.50879 158.965 11.1074C158.954 14.7168 156.76 17.1338 153.221 17.1445ZM150.725 11.1074C150.725 13.1484 151.575 14.6631 153.242 14.6738C154.867 14.6631 155.727 13.1484 155.716 11.1074C155.727 9.05566 154.867 7.51953 153.242 7.51953C151.575 7.51953 150.725 9.05566 150.725 11.1074Z" fill="#2A2A2A"/>
<path d="M140.227 17.1445C136.698 17.1338 134.493 14.7168 134.504 11.1074C134.493 7.50879 136.698 5.0918 140.227 5.0918C143.766 5.0918 145.96 7.50879 145.971 11.1074C145.96 14.7168 143.766 17.1338 140.227 17.1445ZM137.731 11.1074C137.731 13.1484 138.581 14.6631 140.248 14.6738C141.872 14.6631 142.733 13.1484 142.722 11.1074C142.733 9.05566 141.872 7.51953 140.248 7.51953C138.581 7.51953 137.731 9.05566 137.731 11.1074Z" fill="#2A2A2A"/>
<path d="M129.212 1.35352H132.417V12.2031C132.417 15.2217 130.277 17.123 127.147 17.123C124.328 17.123 122.123 15.6406 122.134 12.5684H125.361C125.382 13.8037 126.135 14.5234 127.297 14.5234C128.534 14.5234 129.212 13.7285 129.212 12.2031V1.35352Z" fill="#2A2A2A"/>
<path d="M110.494 17.1445C106.912 17.1338 104.718 14.8242 104.729 11.1289C104.718 7.53027 106.944 5.0918 110.365 5.0918C113.431 5.0918 115.851 7.02539 115.851 11V11.9023H107.87C107.87 13.6641 108.913 14.749 110.559 14.7598C111.645 14.749 112.42 14.2764 112.732 13.5781H115.765C115.313 15.7373 113.377 17.1338 110.494 17.1445ZM107.87 9.9043H112.839C112.828 8.48633 111.85 7.46582 110.43 7.47656C108.967 7.46582 107.934 8.56152 107.87 9.9043Z" fill="#2A2A2A"/>
<path d="M97.8448 17.1445C94.2628 17.1338 92.0684 14.8242 92.0791 11.1289C92.0684 7.53027 94.2951 5.0918 97.7157 5.0918C100.781 5.0918 103.202 7.02539 103.202 11V11.9023H95.2201C95.2201 13.6641 96.2636 14.749 97.9094 14.7598C98.9958 14.749 99.7703 14.2764 100.082 13.5781H103.116C102.664 15.7373 100.728 17.1338 97.8448 17.1445ZM95.2201 9.9043H100.19C100.179 8.48633 99.2002 7.46582 97.7803 7.47656C96.3173 7.46582 95.2847 8.56152 95.2201 9.9043Z" fill="#2A2A2A"/>
<path d="M84.334 16.9082V5.24219H87.4104V7.26172H87.5395C87.959 5.83301 89.0455 5.07031 90.3578 5.07031C90.6805 5.07031 91.0893 5.11328 91.369 5.17773V8.01367C91.0678 7.91699 90.4546 7.8418 90.0136 7.8418C88.5722 7.8418 87.5073 8.84082 87.518 10.2695V16.9082H84.334Z" fill="#2A2A2A"/>
<path d="M82.3328 5.24219V7.62695H80.1384V13.3203C80.1276 14.2549 80.5902 14.4805 81.2356 14.502C81.5583 14.502 82.1176 14.4697 82.5049 14.4375V16.9512C82.1607 17.0049 81.5906 17.0693 80.8053 17.0586C78.5033 17.0693 76.9328 16.0381 76.9543 13.7715V7.62695H75.3408V5.24219H76.9543V2.44922H80.1384V5.24219H82.3328Z" fill="#2A2A2A"/>
<path d="M66.1977 10.1621V16.9082H63.0137V5.24219H66.0471V7.2832H66.1762C66.7033 5.94043 67.9511 5.0918 69.6829 5.0918C72.1247 5.0918 73.7167 6.75684 73.706 9.47461V16.9082H70.5435V10.0332C70.5327 8.59375 69.7582 7.73438 68.4351 7.73438C67.112 7.73438 66.1977 8.62598 66.1977 10.1621Z" fill="#2A2A2A"/>
<path d="M55.6563 17.1445C52.0743 17.1338 49.8799 14.8242 49.8907 11.1289C49.8799 7.53027 52.1066 5.0918 55.5273 5.0918C58.593 5.0918 61.0133 7.02539 61.0133 11V11.9023H53.0317C53.0317 13.6641 54.0751 14.749 55.7209 14.7598C56.8073 14.749 57.5818 14.2764 57.8938 13.5781H60.9272C60.4754 15.7373 58.5392 17.1338 55.6563 17.1445ZM53.0317 9.9043H58.0013C57.9906 8.48633 57.0117 7.46582 55.5918 7.47656C54.1289 7.46582 53.0962 8.56152 53.0317 9.9043Z" fill="#2A2A2A"/>
<path d="M48.492 5.24219V7.62695H46.2976V13.3203C46.2868 14.2549 46.7493 14.4805 47.3948 14.502C47.7175 14.502 48.2768 14.4697 48.6641 14.4375V16.9512C48.3199 17.0049 47.7497 17.0693 46.9645 17.0586C44.6625 17.0693 43.092 16.0381 43.1135 13.7715V7.62695H41.5V5.24219H43.1135V2.44922H46.2976V5.24219H48.492Z" fill="#2A2A2A"/>
<path d="M32.3569 10.1621V16.9082H29.1729V5.24219H32.2063V7.2832H32.3354C32.8625 5.94043 34.1103 5.0918 35.8421 5.0918C38.2839 5.0918 39.8759 6.75684 39.8652 9.47461V16.9082H36.7027V10.0332C36.6919 8.59375 35.9174 7.73438 34.5943 7.73438C33.2712 7.73438 32.3569 8.62598 32.3569 10.1621Z" fill="#2A2A2A"/>
<path d="M21.4278 17.1445C17.8995 17.1338 15.6944 14.7168 15.7051 11.1074C15.6944 7.50879 17.8995 5.0918 21.4278 5.0918C24.9668 5.0918 27.1612 7.50879 27.1719 11.1074C27.1612 14.7168 24.9668 17.1338 21.4278 17.1445ZM18.9322 11.1074C18.9322 13.1484 19.782 14.6631 21.4493 14.6738C23.0736 14.6631 23.9341 13.1484 23.9234 11.1074C23.9341 9.05566 23.0736 7.51953 21.4493 7.51953C19.782 7.51953 18.9322 9.05566 18.9322 11.1074Z" fill="#2A2A2A"/>
<path d="M10.7138 6.76758C10.4557 5.04883 9.13258 4.00684 7.31467 3.99609C4.89437 4.00684 3.2916 5.85449 3.2916 9.13086C3.2916 12.4824 4.91589 14.2549 7.29315 14.2656C9.06803 14.2549 10.4019 13.2881 10.7138 11.6016L13.9839 11.623C13.6289 14.502 11.2086 17.123 7.25012 17.123C3.08722 17.123 0 14.1904 0 9.13086C0 4.0498 3.141 1.13867 7.25012 1.13867C10.8429 1.13867 13.5536 3.19043 13.9839 6.76758H10.7138Z" fill="#2A2A2A"/>
</svg>
