<svg width="24" height="24" viewBox="0 0 24 24" fill="none" xmlns="http://www.w3.org/2000/svg">
<path fill-rule="evenodd" clip-rule="evenodd" d="M12 22C17.5228 22 22 17.5228 22 12C22 6.47715 17.5228 2 12 2C6.47715 2 2 6.47715 2 12C2 17.5228 6.47715 22 12 22ZM12.2777 17.2772C11.8481 17.7068 11.1517 17.7068 10.7221 17.2772L6.22208 12.7772C5.79251 12.3477 5.79251 11.6512 6.22208 11.2216L10.7221 6.7216C11.1517 6.29202 11.8481 6.29202 12.2777 6.7216C12.7073 7.15117 12.7073 7.84766 12.2777 8.27723L9.65554 10.8994L16.9999 10.8994C17.6074 10.8994 18.0999 11.3919 18.0999 11.9994C18.0999 12.6069 17.6074 13.0994 16.9999 13.0994L9.65554 13.0994L12.2777 15.7216C12.7073 16.1512 12.7073 16.8477 12.2777 17.2772Z" fill="#EF2B2A"/>
</svg>
