<svg width="24" height="24" viewBox="0 0 24 24" fill="none" xmlns="http://www.w3.org/2000/svg">
<path fill-rule="evenodd" clip-rule="evenodd" d="M10.233 12.0002L4.75313 17.4801C4.26498 17.9682 4.26498 18.7597 4.75313 19.2479C5.24129 19.736 6.03274 19.736 6.5209 19.2479L12.0008 13.7679L17.4808 19.2479C17.9689 19.736 18.7604 19.736 19.2485 19.2479C19.7367 18.7597 19.7367 17.9683 19.2485 17.4801L13.7686 12.0002L19.2488 6.51993C19.737 6.03178 19.737 5.24032 19.2488 4.75216C18.7607 4.26401 17.9692 4.26401 17.4811 4.75216L12.0008 10.2324L6.5206 4.7522C6.03245 4.26405 5.24099 4.26405 4.75284 4.7522C4.26468 5.24036 4.26468 6.03182 4.75284 6.51997L10.233 12.0002Z" fill="#EF2B2A"/>
</svg>
