<svg width="24" height="24" viewBox="0 0 24 24" fill="none" xmlns="http://www.w3.org/2000/svg">
<path fill-rule="evenodd" clip-rule="evenodd" d="M13.4154 3.21119C12.9107 2.74014 12.1197 2.76742 11.6487 3.27211C11.1776 3.7768 11.2049 4.56778 11.7096 5.03882L17.8287 10.75H3C2.30964 10.75 1.75 11.3096 1.75 12C1.75 12.6904 2.30964 13.25 3 13.25H17.8287L11.7096 18.9612C11.2049 19.4322 11.1776 20.2232 11.6487 20.7279C12.1197 21.2326 12.9107 21.2599 13.4154 20.7888L21.8529 12.9138C22.1062 12.6774 22.25 12.3465 22.25 12C22.25 11.6535 22.1062 11.3226 21.8529 11.0862L13.4154 3.21119Z" fill="#111111"/>
</svg>
