<svg width="24" height="24" viewBox="0 0 24 24" fill="none" xmlns="http://www.w3.org/2000/svg">
<path fill-rule="evenodd" clip-rule="evenodd" d="M4.95375 4.00414C5.28562 3.59938 6.09838 2.77342 6.8277 2.81394C7.55702 2.85446 8.49906 3.70027 8.86625 4.06745C9.12898 4.33019 10.0261 5.30325 9.95516 5.9414C9.89874 6.44926 9.50871 6.97251 9.15105 7.45235C8.94693 7.72619 8.75335 7.98589 8.63834 8.22052C8.32179 8.86627 8.19518 9.17015 9.20812 10.4617C10.0185 11.4949 10.9132 12.4116 11.2593 12.7408L8.71431 15.2858C7.32784 13.8993 5.59286 12.1644 4.76383 10.6516C3.53564 8.41045 3.62427 7.16959 3.67492 6.67578C3.71109 6.3231 3.85851 5.33996 4.95375 4.00414ZM19.996 19.0464C20.4008 18.7145 21.2268 17.9017 21.1862 17.1724C21.1457 16.4431 20.2999 15.5011 19.9327 15.1339C19.67 14.8711 18.6969 13.974 18.0588 14.0449C17.5509 14.1014 17.0277 14.4914 16.5478 14.8491C16.274 15.0532 16.0143 15.2468 15.7797 15.3618C15.1339 15.6783 14.83 15.8049 13.5385 14.792C12.5053 13.9816 11.5886 13.0869 11.2594 12.7408L8.71437 15.2858C10.1008 16.6723 11.8358 18.4073 13.3486 19.2363C15.5897 20.4645 16.8306 20.3758 17.3244 20.3252C17.6771 20.289 18.6602 20.1416 19.996 19.0464Z" fill="#111111"/>
</svg>
