<svg width="24" height="24" viewBox="0 0 24 24" fill="none" xmlns="http://www.w3.org/2000/svg">
<path fill-rule="evenodd" clip-rule="evenodd" d="M6.24267 14.3493L6.94532 13.6466L6.94979 13.6422L15.7886 4.80333C16.7259 3.86608 18.2455 3.86608 19.1827 4.80333C20.12 5.74059 20.12 7.26019 19.1827 8.19745L18.8335 8.54671C18.832 8.54813 18.8306 8.54957 18.8292 8.551L10.3439 17.0363C9.99241 17.3878 9.42256 17.3878 9.07109 17.0363C8.71962 16.6848 8.71962 16.115 9.07109 15.7635L16.4044 8.43022C16.8339 8.00065 16.8339 7.30416 16.4044 6.87459C15.9748 6.44501 15.2783 6.44501 14.8487 6.87459L7.51546 14.2079C6.30483 15.4185 6.30483 17.3813 7.51546 18.5919C8.72608 19.8025 10.6889 19.8025 11.8995 18.5919L13.2119 17.2795C13.2133 17.2781 13.2147 17.2767 13.2161 17.2753L20.3848 10.1066L20.7384 9.75308C22.5348 7.95667 22.5348 5.04411 20.7384 3.2477C18.942 1.45129 16.0294 1.45129 14.233 3.2477L11.1532 6.32752L11.1486 6.33204L4.68704 12.7936C2.30484 15.1758 2.30484 19.0381 4.68704 21.4203C7.06924 23.8025 10.9315 23.8025 13.3137 21.4203L21.0919 13.6422C21.5215 13.2126 21.5215 12.5161 21.0919 12.0865C20.6623 11.6569 19.9659 11.6569 19.5363 12.0865L11.7581 19.8647C10.2351 21.3877 7.76572 21.3877 6.24267 19.8647C4.71963 18.3417 4.71963 15.8723 6.24267 14.3493Z" fill="#111111"/>
</svg>
