<svg width="24" height="24" viewBox="0 0 24 24" fill="none" xmlns="http://www.w3.org/2000/svg">
<path fill-rule="evenodd" clip-rule="evenodd" d="M7.49609 3C6.87477 3 6.37109 3.50368 6.37109 4.125V5.25H4.49609C3.66767 5.25 2.99609 5.92157 2.99609 6.75V7.5H20.9961V6.75C20.9961 5.92157 20.3245 5.25 19.4961 5.25H17.6211V4.125C17.6211 3.50368 17.1174 3 16.4961 3C15.8748 3 15.3711 3.50368 15.3711 4.125V5.25H8.62109V4.125C8.62109 3.50368 8.11741 3 7.49609 3ZM20.9961 9.1875H2.99609V19.5C2.99609 20.3284 3.66767 21 4.49609 21H19.4961C20.3245 21 20.9961 20.3284 20.9961 19.5V9.1875ZM8.62109 12V13.6875H6.37109V12H8.62109ZM8.62109 17.0625V15.375H6.37109V17.0625H8.62109ZM10.9414 12H13.1914V13.6875H10.9414V12ZM13.1914 15.375H10.9414V17.0625H13.1914V15.375ZM17.6211 12V13.6875H15.3711V12H17.6211ZM17.6211 17.0625V15.375H15.3711V17.0625H17.6211Z" fill="#111111"/>
</svg>
