<svg width="24" height="24" viewBox="0 0 24 24" fill="none" xmlns="http://www.w3.org/2000/svg">
<path fill-rule="evenodd" clip-rule="evenodd" d="M15 4L16.3333 6H20C21.1046 6 22 6.89543 22 8V18C22 19.1046 21.1046 20 20 20H4C2.89543 20 2 19.1046 2 18V8C2 6.89543 2.89543 6 4 6H7.66667L9 4H15ZM9.33077 7.1094L10.0704 6H13.9296L14.6692 7.1094C15.0402 7.6658 15.6646 8 16.3333 8H20V18H4L4 8H7.66667C8.33537 8 8.95984 7.6658 9.33077 7.1094ZM14 12.5C14 13.6046 13.1046 14.5 12 14.5C10.8954 14.5 10 13.6046 10 12.5C10 11.3954 10.8954 10.5 12 10.5C13.1046 10.5 14 11.3954 14 12.5ZM16 12.5C16 14.7091 14.2091 16.5 12 16.5C9.79086 16.5 8 14.7091 8 12.5C8 10.2909 9.79086 8.5 12 8.5C14.2091 8.5 16 10.2909 16 12.5Z" fill="#111111"/>
</svg>
