<svg width="24" height="24" viewBox="0 0 24 24" fill="none" xmlns="http://www.w3.org/2000/svg">
<path fill-rule="evenodd" clip-rule="evenodd" d="M10.233 12.0008L4.75313 17.4808C4.26498 17.9689 4.26498 18.7604 4.75313 19.2485C5.24129 19.7367 6.03274 19.7367 6.5209 19.2485L12.0008 13.7686L17.4808 19.2486C17.9689 19.7367 18.7604 19.7367 19.2485 19.2486C19.7367 18.7604 19.7367 17.969 19.2485 17.4808L13.7686 12.0008L19.2488 6.5206C19.737 6.03245 19.737 5.24099 19.2488 4.75284C18.7607 4.26468 17.9692 4.26468 17.4811 4.75284L12.0008 10.2331L6.5206 4.75288C6.03245 4.26472 5.24099 4.26472 4.75284 4.75288C4.26468 5.24103 4.26468 6.03249 4.75284 6.52064L10.233 12.0008Z" fill="#111111"/>
</svg>
