<svg width="24" height="24" viewBox="0 0 24 24" fill="none" xmlns="http://www.w3.org/2000/svg">
<path fill-rule="evenodd" clip-rule="evenodd" d="M13.25 3C13.25 2.30964 12.6904 1.75 12 1.75C11.3096 1.75 10.75 2.30964 10.75 3L10.75 11.9822L8.38388 9.61612C7.89573 9.12796 7.10427 9.12796 6.61612 9.61612C6.12796 10.1043 6.12796 10.8957 6.61612 11.3839L11.1161 15.8839C11.6043 16.372 12.3957 16.372 12.8839 15.8839L17.3839 11.3839C17.872 10.8957 17.872 10.1043 17.3839 9.61612C16.8957 9.12796 16.1043 9.12796 15.6161 9.61612L13.25 11.9822L13.25 3ZM4 13.75C4.69036 13.75 5.25 14.3096 5.25 15V18.75H18.75V15C18.75 14.3096 19.3096 13.75 20 13.75C20.6904 13.75 21.25 14.3096 21.25 15V19C21.25 20.2426 20.2426 21.25 19 21.25H5C3.75736 21.25 2.75 20.2426 2.75 19V15C2.75 14.3096 3.30964 13.75 4 13.75Z" fill="#111111"/>
</svg>
