<svg width="24" height="24" viewBox="0 0 24 24" fill="none" xmlns="http://www.w3.org/2000/svg">
<path fill-rule="evenodd" clip-rule="evenodd" d="M6.5 3C5.67157 3 5 3.67157 5 4.5V19.5C5 20.3284 5.67157 21 6.5 21H14.75V18.5C14.75 16.9812 15.9812 15.75 17.5 15.75H20V4.5C20 3.67157 19.3284 3 18.5 3H6.5ZM8.00586 7.75C8.00586 7.33579 8.34165 7 8.75586 7H16.2559C16.6701 7 17.0059 7.33579 17.0059 7.75C17.0059 8.16421 16.6701 8.5 16.2559 8.5H8.75586C8.34165 8.5 8.00586 8.16421 8.00586 7.75ZM8.00586 10.75C8.00586 10.3358 8.34165 10 8.75586 10H16.2559C16.6701 10 17.0059 10.3358 17.0059 10.75C17.0059 11.1642 16.6701 11.5 16.2559 11.5H8.75586C8.34165 11.5 8.00586 11.1642 8.00586 10.75ZM8.75586 13C8.34165 13 8.00586 13.3358 8.00586 13.75C8.00586 14.1642 8.34165 14.5 8.75586 14.5H16.2559C16.6701 14.5 17.0059 14.1642 17.0059 13.75C17.0059 13.3358 16.6701 13 16.2559 13H8.75586ZM17.5078 17C16.6794 17 16.0078 17.6716 16.0078 18.5L16.0078 21L20 17L17.5078 17Z" fill="#111111"/>
</svg>
