<svg width="24" height="24" viewBox="0 0 24 24" fill="none" xmlns="http://www.w3.org/2000/svg">
<path fill-rule="evenodd" clip-rule="evenodd" d="M16.6938 3.82613C16.8891 3.63087 17.2057 3.63087 17.4009 3.82613L20.1463 6.57155C20.3416 6.76681 20.3416 7.08339 20.1463 7.27865L18.6956 8.72937C18.5003 8.92463 18.1838 8.92463 17.9885 8.72937L15.2431 5.98396C15.0478 5.7887 15.0478 5.47211 15.2431 5.27685L16.6938 3.82613ZM10.7392 16.9746C10.7389 16.9743 10.7384 16.9742 10.738 16.9742L7.47277 17.3434C7.15359 17.3795 6.88366 17.1096 6.91975 16.7904L7.289 13.5252C7.28902 13.525 7.289 13.5248 7.28894 13.5246C7.28888 13.5244 7.28876 13.5242 7.2886 13.524C7.28806 13.5235 7.28806 13.5226 7.2886 13.5221L7.28932 13.5214L7.28946 13.5211L7.28952 13.5205C7.28954 13.5203 7.28979 13.5202 7.28994 13.5204H7.29029L13.8881 6.92258C14.0834 6.72732 14.3999 6.72732 14.5952 6.92258L17.3406 9.668C17.5359 9.86326 17.5359 10.1798 17.3406 10.3751L10.7428 16.9729V16.9733L10.7429 16.9735L10.7427 16.9737L10.7421 16.9737L10.7418 16.9739L10.7411 16.9746C10.7406 16.9751 10.7397 16.9751 10.7392 16.9746ZM4 18.9208C3.44772 18.9208 3 19.3685 3 19.9208C3 20.4731 3.44772 20.9208 4 20.9208H13.5337C14.086 20.9208 14.5337 20.4731 14.5337 19.9208C14.5337 19.3685 14.086 18.9208 13.5337 18.9208H4Z" fill="#111111"/>
</svg>
