<svg width="24" height="24" viewBox="0 0 24 24" fill="none" xmlns="http://www.w3.org/2000/svg">
<path fill-rule="evenodd" clip-rule="evenodd" d="M20.7071 2.29289C21.0976 2.68342 21.0976 3.31658 20.7071 3.70711L18.6279 5.78631C21.6294 7.58275 23.3701 10.3204 24 12C23 14.6667 19.2 20 12 20C9.59517 20 7.56965 19.405 5.90106 18.5132L3.20711 21.2071C2.81658 21.5976 2.18342 21.5976 1.79289 21.2071C1.40237 20.8166 1.40237 20.1834 1.79289 19.7929L19.2929 2.29289C19.6834 1.90237 20.3166 1.90237 20.7071 2.29289ZM8.67761 15.7366C9.56088 16.5225 10.7247 17 12 17C14.7614 17 17 14.7614 17 12C17 10.7247 16.5225 9.56088 15.7366 8.67761L14.3184 10.0959C14.7443 10.6138 15 11.2771 15 12C15 13.6569 13.6569 15 12 15C11.2771 15 10.6138 14.7443 10.0959 14.3184L8.67761 15.7366ZM12 4C13.1287 4 14.1738 4.13106 15.1376 4.36235L12.4775 7.0225C12.3203 7.00762 12.1611 7 12 7C9.23858 7 7 9.23858 7 12C7 12.1611 7.00762 12.3203 7.0225 12.4775L3.05613 16.4439C1.44648 14.9048 0.445447 13.1879 0 12C1 9.33333 4.8 4 12 4Z" fill="#111111"/>
</svg>
