<svg width="24" height="24" viewBox="0 0 24 24" fill="none" xmlns="http://www.w3.org/2000/svg">
<path fill-rule="evenodd" clip-rule="evenodd" d="M16.3001 6C16.3001 6.66274 15.7628 7.2 15.1001 7.2C14.4374 7.2 13.9001 6.66274 13.9001 6C13.9001 5.33726 14.4374 4.8 15.1001 4.8C15.7628 4.8 16.3001 5.33726 16.3001 6ZM17.8919 7.10039C17.453 8.21285 16.3685 9 15.1001 9C13.8317 9 12.7472 8.21285 12.3083 7.10039H3.1C2.49249 7.10039 2 6.6079 2 6.00039C2 5.39288 2.49249 4.90039 3.1 4.90039H12.308C12.7467 3.78752 13.8314 3 15.1001 3C16.3688 3 17.4535 3.78752 17.8922 4.90039H21.1C21.7075 4.90039 22.2 5.39288 22.2 6.00039C22.2 6.6079 21.7075 7.10039 21.1 7.10039H17.8919ZM2 12.0004C2 11.3929 2.49249 10.9004 3.1 10.9004H21.1C21.7075 10.9004 22.2 11.3929 22.2 12.0004C22.2 12.6079 21.7075 13.1004 21.1 13.1004H3.1C2.49249 13.1004 2 12.6079 2 12.0004ZM9.1001 16.8C8.43736 16.8 7.9001 17.3373 7.9001 18C7.9001 18.6627 8.43736 19.2 9.1001 19.2C9.76284 19.2 10.3001 18.6627 10.3001 18C10.3001 17.3373 9.76284 16.8 9.1001 16.8ZM9.1001 15C7.83171 15 6.74717 15.7872 6.30833 16.8996H3.1002C2.49268 16.8996 2.00019 17.3921 2.00019 17.9996C2.00019 18.6071 2.49268 19.0996 3.1002 19.0996H6.30802C6.74666 20.2125 7.83141 21 9.1001 21C10.3688 21 11.4535 20.2125 11.8922 19.0996H21.1002C21.7077 19.0996 22.2002 18.6071 22.2002 17.9996C22.2002 17.3921 21.7077 16.8996 21.1002 16.8996H11.8919C11.453 15.7872 10.3685 15 9.1001 15Z" fill="#111111"/>
</svg>
