<svg width="24" height="24" viewBox="0 0 24 24" fill="none" xmlns="http://www.w3.org/2000/svg">
<path fill-rule="evenodd" clip-rule="evenodd" d="M2.37531 8.70038C2.13809 8.89015 2 9.17747 2 9.48125V10.0006V21.0006C2 21.5529 2.44772 22.0006 3 22.0006H8C8.55228 22.0006 9 21.5529 9 21.0006V15.0006C9 14.4483 9.44772 14.0006 10 14.0006H14C14.5523 14.0006 15 14.4483 15 15.0006V21.0006C15 21.5529 15.4477 22.0006 16 22.0006H21C21.5523 22.0006 22 21.5529 22 21.0006V10.0006V9.48125C22 9.17747 21.8619 8.89015 21.6247 8.70038L12.6247 1.50038C12.2595 1.20821 11.7405 1.20821 11.3753 1.50038L2.37531 8.70038Z" fill="#111111"/>
</svg>
