<svg width="24" height="24" viewBox="0 0 24 24" fill="none" xmlns="http://www.w3.org/2000/svg">
<path fill-rule="evenodd" clip-rule="evenodd" d="M5.5 4C4.67157 4 4 4.67157 4 5.5V18.5C4 19.3284 4.67157 20 5.5 20H18.5C19.3284 20 20 19.3284 20 18.5V5.5C20 4.67157 19.3284 4 18.5 4H5.5ZM16.5 9C17.3285 9 18 8.32843 18 7.5C18 6.67157 17.3285 6 16.5 6C15.6716 6 15 6.67157 15 7.5C15 8.32843 15.6716 9 16.5 9ZM11.8381 10.4564C11.2435 9.5737 9.94441 9.5737 9.34986 10.4564L6.10659 15.2714C5.43548 16.2677 6.1494 17.6094 7.35069 17.6094H12.2617H13.8372H16.9259C18.1361 17.6094 18.8481 16.2499 18.1589 15.2551L15.8268 11.889C15.2303 11.028 13.9573 11.028 13.3608 11.889L13.078 12.2972L11.8381 10.4564Z" fill="#111111"/>
</svg>
