<svg width="24" height="24" viewBox="0 0 24 24" fill="none" xmlns="http://www.w3.org/2000/svg">
<path fill-rule="evenodd" clip-rule="evenodd" d="M11.0004 14.4004C11.6079 14.4004 12.1004 14.8929 12.1004 15.5004V18.5004C12.1004 19.9363 10.9363 21.1004 9.50039 21.1004H4.50039C3.06445 21.1004 1.90039 19.9363 1.90039 18.5004V5.50039C1.90039 4.06445 3.06445 2.90039 4.50039 2.90039H9.50039C10.9363 2.90039 12.1004 4.06445 12.1004 5.50039V8.00039C12.1004 8.6079 11.6079 9.10039 11.0004 9.10039C10.3929 9.10039 9.90039 8.6079 9.90039 8.00039V5.50039C9.90039 5.27948 9.7213 5.10039 9.50039 5.10039L4.50039 5.10039C4.27948 5.10039 4.10039 5.27948 4.10039 5.50039L4.10039 18.5004C4.10039 18.7213 4.27948 18.9004 4.50039 18.9004H9.50039C9.7213 18.9004 9.90039 18.7213 9.90039 18.5004V15.5004C9.90039 14.8929 10.3929 14.4004 11.0004 14.4004ZM15.7643 6.18278C16.2159 5.77637 16.9114 5.81298 17.3178 6.26454L21.8178 11.2645C22.2092 11.6994 22.1917 12.3645 21.778 12.7782L17.278 17.2782C16.8484 17.7078 16.152 17.7078 15.7224 17.2782C15.2928 16.8486 15.2928 16.1522 15.7224 15.7226L18.3446 13.1004L10.0002 13.1004C9.39268 13.1004 8.9002 12.6079 8.9002 12.0004C8.9002 11.3929 9.39268 10.9004 10.0002 10.9004L18.5303 10.9004L15.6826 7.73626C15.2762 7.2847 15.3128 6.58918 15.7643 6.18278Z" fill="#111111"/>
</svg>
