<svg width="24" height="24" viewBox="0 0 24 24" fill="none" xmlns="http://www.w3.org/2000/svg">
<path fill-rule="evenodd" clip-rule="evenodd" d="M12 3.19531C9.10051 3.19531 6.75 5.54581 6.75 8.44531V9.65723H6.5C5.67157 9.65723 5 10.3288 5 11.1572V19.1572C5 19.9857 5.67157 20.6572 6.5 20.6572H17.5C18.3284 20.6572 19 19.9857 19 19.1572V11.1572C19 10.3288 18.3284 9.65723 17.5 9.65723H17.25V8.44531C17.25 5.54582 14.8995 3.19531 12 3.19531ZM15.25 9.65723V8.44531C15.25 6.65039 13.7949 5.19531 12 5.19531C10.2051 5.19531 8.75 6.65038 8.75 8.44531V9.65723H15.25ZM12.75 15.2099C13.1082 14.9685 13.3438 14.5591 13.3438 14.0947C13.3438 13.3526 12.7421 12.751 12 12.751C11.2579 12.751 10.6562 13.3526 10.6562 14.0947C10.6562 14.5591 10.8918 14.9685 11.25 15.2099V17.0947C11.25 17.5089 11.5858 17.8447 12 17.8447C12.4142 17.8447 12.75 17.5089 12.75 17.0947V15.2099Z" fill="#111111"/>
</svg>
