<svg width="24" height="24" viewBox="0 0 24 24" fill="none" xmlns="http://www.w3.org/2000/svg">
<path fill-rule="evenodd" clip-rule="evenodd" d="M18.9375 9.43359C18.9375 10.928 18.4655 12.3122 17.6625 13.4452L14.9959 17.458L12.6583 20.9733C12.3418 21.4494 11.6426 21.4494 11.326 20.9733L6.29016 13.4C6.23226 13.317 6.17613 13.2326 6.12182 13.1469L5.98479 12.9408L5.99629 12.941C5.39283 11.9116 5.04688 10.713 5.04688 9.43359C5.04688 5.5978 8.1564 2.48828 11.9922 2.48828C15.828 2.48828 18.9375 5.5978 18.9375 9.43359ZM11.9922 11.6259C13.203 11.6259 14.1845 10.6444 14.1845 9.43357C14.1845 8.22276 13.203 7.24121 11.9922 7.24121C10.7814 7.24121 9.7998 8.22276 9.7998 9.43357C9.7998 10.6444 10.7814 11.6259 11.9922 11.6259Z" fill="#111111"/>
</svg>
