<svg width="24" height="24" viewBox="0 0 24 24" fill="none" xmlns="http://www.w3.org/2000/svg">
<path fill-rule="evenodd" clip-rule="evenodd" d="M3 4C2.44772 4 2 4.44772 2 5V19C2 19.5523 2.44772 20 3 20H12H21C21.5523 20 22 19.5523 22 19V5C22 4.44772 21.5523 4 21 4H14C12.8954 4 12 4.89543 12 6C12 4.89543 11.1046 4 10 4H3ZM4.75 8C4.33579 8 4 8.33579 4 8.75C4 9.16421 4.33579 9.5 4.75 9.5H9.25C9.66421 9.5 10 9.16421 10 8.75C10 8.33579 9.66421 8 9.25 8H4.75ZM14.75 8C14.3358 8 14 8.33579 14 8.75C14 9.16421 14.3358 9.5 14.75 9.5H19.25C19.6642 9.5 20 9.16421 20 8.75C20 8.33579 19.6642 8 19.25 8H14.75ZM4 11.75C4 11.3358 4.33579 11 4.75 11H9.25C9.66421 11 10 11.3358 10 11.75C10 12.1642 9.66421 12.5 9.25 12.5H4.75C4.33579 12.5 4 12.1642 4 11.75ZM14.75 11C14.3358 11 14 11.3358 14 11.75C14 12.1642 14.3358 12.5 14.75 12.5H19.25C19.6642 12.5 20 12.1642 20 11.75C20 11.3358 19.6642 11 19.25 11H14.75ZM4 14.75C4 14.3358 4.33579 14 4.75 14H9.25C9.66421 14 10 14.3358 10 14.75C10 15.1642 9.66421 15.5 9.25 15.5H4.75C4.33579 15.5 4 15.1642 4 14.75ZM14.75 14C14.3358 14 14 14.3358 14 14.75C14 15.1642 14.3358 15.5 14.75 15.5H19.25C19.6642 15.5 20 15.1642 20 14.75C20 14.3358 19.6642 14 19.25 14H14.75Z" fill="#111111"/>
</svg>
