<svg width="24" height="24" viewBox="0 0 24 24" fill="none" xmlns="http://www.w3.org/2000/svg">
<g clip-path="url(#clip0_3_85601)">
<path fill-rule="evenodd" clip-rule="evenodd" d="M19.6465 6.00706L12 12.0721L4.3535 6.00706C4.4017 6.00239 4.45057 6 4.5 6H19.5C19.5494 6 19.5983 6.00239 19.6465 6.00706ZM3.00006 7.48629C3.00002 7.49086 3 7.49543 3 7.5V17.1C3 17.9284 3.67157 18.6 4.5 18.6H19.5C20.3284 18.6 21 17.9284 21 17.1V7.5C21 7.49543 21 7.49086 20.9999 7.4863L12.6214 14.132C12.2574 14.4207 11.7426 14.4207 11.3786 14.132L3.00006 7.48629Z" fill="#111111"/>
</g>
<defs>
<clipPath id="clip0_3_85601">
<rect width="24" height="24" fill="white"/>
</clipPath>
</defs>
</svg>
