<svg width="24" height="24" viewBox="0 0 24 24" fill="none" xmlns="http://www.w3.org/2000/svg">
<path fill-rule="evenodd" clip-rule="evenodd" d="M20.456 15.0888C19.4364 15.6687 18.2569 16 17 16C13.134 16 10 12.866 10 9C10 6.51249 11.2975 4.32802 13.2526 3.08647C12.8433 3.02947 12.4251 3 12 3C7.02944 3 3 7.02944 3 12C3 16.9706 7.02944 21 12 21C15.8854 21 19.1957 18.5379 20.456 15.0888Z" fill="#111111"/>
<path d="M20.456 15.0888L20.9256 15.2604C20.9976 15.0634 20.939 14.8424 20.7788 14.707C20.6187 14.5716 20.3911 14.5505 20.2088 14.6542L20.456 15.0888ZM13.2526 3.08647L13.5207 3.50856C13.6977 3.39618 13.7857 3.18531 13.7413 2.98043C13.6968 2.77555 13.5292 2.62017 13.3216 2.59125L13.2526 3.08647ZM20.2088 14.6542C19.2625 15.1924 18.1679 15.5 17 15.5V16.5C18.3458 16.5 19.6102 16.1451 20.7032 15.5234L20.2088 14.6542ZM17 15.5C13.4101 15.5 10.5 12.5899 10.5 9H9.5C9.5 13.1421 12.8579 16.5 17 16.5V15.5ZM10.5 9C10.5 6.69071 11.7039 4.66225 13.5207 3.50856L12.9846 2.66439C10.8911 3.9938 9.5 6.33427 9.5 9H10.5ZM12 3.5C12.4019 3.5 12.7971 3.52786 13.1837 3.5817L13.3216 2.59125C12.8894 2.53107 12.4482 2.5 12 2.5V3.5ZM3.5 12C3.5 7.30558 7.30558 3.5 12 3.5V2.5C6.75329 2.5 2.5 6.75329 2.5 12H3.5ZM12 20.5C7.30558 20.5 3.5 16.6944 3.5 12H2.5C2.5 17.2467 6.75329 21.5 12 21.5V20.5ZM19.9863 14.9172C18.7959 18.1754 15.6688 20.5 12 20.5V21.5C16.102 21.5 19.5956 18.9004 20.9256 15.2604L19.9863 14.9172Z" fill="#111111"/>
</svg>
