<svg width="24" height="24" viewBox="0 0 24 24" fill="none" xmlns="http://www.w3.org/2000/svg">
<path fill-rule="evenodd" clip-rule="evenodd" d="M3 5.5C3 4.67157 3.67157 4 4.5 4H15.5C16.3284 4 17 4.67157 17 5.5V17.5C17 19.5 18.1953 20 19 20H15.7135C15.6814 20 15.6496 19.9985 15.618 19.9954C15.579 19.9985 15.5397 20 15.5 20H4.5C3.67157 20 3 19.3284 3 18.5V5.5ZM6 8C6 7.44772 6.44772 7 7 7H13C13.5523 7 14 7.44772 14 8V12C14 12.5523 13.5523 13 13 13H7C6.44772 13 6 12.5523 6 12V8ZM6.75 15.5C6.33579 15.5 6 15.8358 6 16.25C6 16.6642 6.33579 17 6.75 17H13.25C13.6642 17 14 16.6642 14 16.25C14 15.8358 13.6642 15.5 13.25 15.5H6.75ZM18 6.5C18 6.22386 18.2239 6 18.5 6H20.5C20.7761 6 21 6.22386 21 6.5V17.5C21 18.3284 20.3284 19 19.5 19C18.6716 19 18 18.3284 18 17.5V6.5Z" fill="#111111"/>
</svg>
