<svg width="24" height="24" viewBox="0 0 24 24" fill="none" xmlns="http://www.w3.org/2000/svg">
<path fill-rule="evenodd" clip-rule="evenodd" d="M18.8249 2.47111C18.7701 1.78293 18.1678 1.2695 17.4796 1.32432C16.7914 1.37915 16.278 1.98147 16.3328 2.66964L16.4287 3.87371C15.7126 3.48098 14.9365 3.17972 14.1153 2.98704C13.6477 2.87732 13.1662 2.80297 12.6736 2.76686C7.59619 2.39471 3.17847 6.20905 2.80632 11.2864C2.43418 16.3638 6.24852 20.7815 11.3259 21.1537C16.4033 21.5258 20.821 17.7115 21.1931 12.6341C21.2097 12.4086 21.2179 12.1843 21.2181 11.9613C21.2188 11.271 20.6598 10.7108 19.9694 10.7101C19.2791 10.7094 18.7188 11.2684 18.7181 11.9588C18.718 12.1217 18.7119 12.2859 18.6998 12.4514C18.4286 16.1517 15.209 18.9316 11.5086 18.6604C7.80828 18.3891 5.02842 15.1695 5.29964 11.4692C5.57086 7.76882 8.79046 4.98895 12.4908 5.26017C12.8521 5.28665 13.2038 5.34107 13.5442 5.42093C13.7382 5.46646 13.9288 5.52031 14.1155 5.58207L13.8309 5.60474C13.1427 5.65956 12.6293 6.26188 12.6841 6.95006C12.7389 7.63823 13.3412 8.15167 14.0294 8.09684L17.994 7.78101C18.3244 7.75468 18.6309 7.59815 18.846 7.34585C19.0611 7.09356 19.1671 6.76616 19.1408 6.43569L18.8249 2.47111Z" fill="#111111"/>
</svg>
