<svg width="24" height="24" viewBox="0 0 24 24" fill="none" xmlns="http://www.w3.org/2000/svg">
<path fill-rule="evenodd" clip-rule="evenodd" d="M10.5287 5.12238L6.09375 8.74984V8.76662L3.61983 9.00822C2.85153 9.08325 2.26562 9.72916 2.26562 10.5011V11.9998V13.4986C2.26562 14.2705 2.85153 14.9164 3.61983 14.9915L6.09375 15.2331V15.2498L10.5287 18.8773C10.9858 19.2511 11.6719 18.9259 11.6719 18.3355V11.9998V5.66422C11.6719 5.07373 10.9858 4.74853 10.5287 5.12238ZM14.778 9.35093C14.4454 8.90997 13.8184 8.82207 13.3775 9.15459C12.9365 9.48712 12.8486 10.1142 13.1811 10.5551C13.332 10.7552 13.5625 11.3038 13.6161 11.9512C13.6696 12.5984 13.527 13.0695 13.2724 13.324C12.8819 13.7146 12.8819 14.3477 13.2724 14.7383C13.663 15.1288 14.2961 15.1288 14.6867 14.7383C15.536 13.8889 15.6856 12.7084 15.6093 11.7862C15.533 10.8644 15.2115 9.92577 14.778 9.35093ZM15.6065 7.29522C16.0474 6.96269 16.6745 7.05059 17.007 7.49155C17.7069 8.41974 18.2801 10.0363 18.4156 11.6738C18.5511 13.3114 18.2684 15.2449 16.9157 16.5976C16.5251 16.9882 15.892 16.9882 15.5014 16.5976C15.1109 16.2071 15.1109 15.5739 15.5014 15.1834C16.2593 14.4255 16.5352 13.2015 16.4224 11.8387C16.3096 10.4757 15.8275 9.2492 15.4101 8.69574C15.0776 8.25478 15.1655 7.62775 15.6065 7.29522ZM19.8263 5.62144C19.4938 5.18048 18.8668 5.09258 18.4258 5.4251C17.9848 5.75763 17.8969 6.38466 18.2295 6.82562C18.9148 7.73443 19.65 9.64284 19.8224 11.7254C19.9947 13.8077 19.5848 15.7891 18.3208 17.0531C17.9303 17.4436 17.9303 18.0768 18.3208 18.4673C18.7113 18.8579 19.3445 18.8579 19.735 18.4673C21.5939 16.6085 22.0106 13.9176 21.8155 11.5604C21.6205 9.20344 20.7942 6.90496 19.8263 5.62144Z" fill="#111111"/>
</svg>
