<svg width="24" height="24" viewBox="0 0 24 24" fill="none" xmlns="http://www.w3.org/2000/svg">
<path fill-rule="evenodd" clip-rule="evenodd" d="M6.72257 8.27821C6.293 7.84863 6.293 7.15215 6.72257 6.72257L11.2226 2.22257C11.6522 1.793 12.3486 1.793 12.7782 2.22257L17.2782 6.72257C17.7078 7.15215 17.7078 7.84863 17.2782 8.27821C16.8486 8.70779 16.1521 8.70778 15.7226 8.27821L13.1004 5.65602L13.1004 15.0004C13.1004 15.6079 12.6079 16.1004 12.0004 16.1004C11.3929 16.1004 10.9004 15.6079 10.9004 15.0004L10.9004 5.65603L8.27821 8.27821C7.84863 8.70778 7.15215 8.70778 6.72257 8.27821ZM4.00039 13.9012C4.6079 13.9012 5.10039 14.3937 5.10039 15.0012V18.9012H18.9004V15.0012C18.9004 14.3937 19.3929 13.9012 20.0004 13.9012C20.6079 13.9012 21.1004 14.3937 21.1004 15.0012V19.0012C21.1004 20.161 20.1602 21.1012 19.0004 21.1012H5.00039C3.84059 21.1012 2.90039 20.161 2.90039 19.0012V15.0012C2.90039 14.3937 3.39288 13.9012 4.00039 13.9012Z" fill="#111111"/>
</svg>
