<svg width="24" height="24" viewBox="0 0 24 24" fill="none" xmlns="http://www.w3.org/2000/svg">
<path fill-rule="evenodd" clip-rule="evenodd" d="M9.49918 6H11.9992H14.4992C14.4992 4.61929 13.3799 3.5 11.9992 3.5C10.6185 3.5 9.49918 4.61929 9.49918 6ZM7.99918 6H6.7699C6.03664 6 5.41086 6.53012 5.29031 7.2534L3.29031 19.2534C3.13793 20.1677 3.84299 21 4.7699 21H11.9992H19.2285C20.1554 21 20.8605 20.1677 20.7081 19.2534L18.7081 7.2534C18.5875 6.53012 17.9617 6 17.2285 6H15.9992C15.9992 3.79086 14.2083 2 11.9992 2C9.79004 2 7.99918 3.79086 7.99918 6Z" fill="#111111"/>
</svg>
