<svg width="24" height="24" viewBox="0 0 24 24" fill="none" xmlns="http://www.w3.org/2000/svg">
<path fill-rule="evenodd" clip-rule="evenodd" d="M10.4996 1.5C9.67113 1.5 8.99956 2.17157 8.99956 3C8.99956 4.6906 7.16943 5.74721 5.70533 4.90192C4.98789 4.4877 4.07051 4.73351 3.65629 5.45095L2.15629 8.04903C1.74208 8.76647 1.98789 9.68385 2.70533 10.0981C4.16943 10.9434 4.16943 13.0566 2.70533 13.9019C1.98789 14.3161 1.74208 15.2335 2.15629 15.951L3.65629 18.549C4.0705 19.2665 4.98789 19.5123 5.70533 19.0981C7.16943 18.2528 8.99956 19.3094 8.99956 21C8.99956 21.8284 9.67113 22.5 10.4996 22.5H13.4996C14.328 22.5 14.9996 21.8284 14.9996 21C14.9996 19.3094 16.8297 18.2528 18.2938 19.0981C19.0112 19.5123 19.9286 19.2665 20.3428 18.549L21.8428 15.951C22.257 15.2335 22.0112 14.3161 21.2938 13.9019C19.8297 13.0566 19.8297 10.9434 21.2938 10.0981C22.0112 9.68386 22.257 8.76647 21.8428 8.04903L20.3428 5.45095C19.9286 4.73352 19.0112 4.4877 18.2938 4.90192C16.8297 5.74721 14.9996 4.6906 14.9996 3C14.9996 2.17157 14.328 1.5 13.4996 1.5H10.4996ZM11.9996 16C14.2087 16 15.9996 14.2091 15.9996 12C15.9996 9.79086 14.2087 8 11.9996 8C9.79043 8 7.99957 9.79086 7.99957 12C7.99957 14.2091 9.79043 16 11.9996 16Z" fill="#111111"/>
</svg>
