<svg width="24" height="24" viewBox="0 0 24 24" fill="none" xmlns="http://www.w3.org/2000/svg">
<path fill-rule="evenodd" clip-rule="evenodd" d="M8.5 4.28125C8.5 3.72897 8.94772 3.28125 9.5 3.28125H14.5C15.0523 3.28125 15.5 3.72897 15.5 4.28125C15.5 4.83353 15.0523 5.28125 14.5 5.28125H9.5C8.94772 5.28125 8.5 4.83353 8.5 4.28125ZM5.24493 8.25H4C3.44772 8.25 3 7.80228 3 7.25C3 6.69772 3.44772 6.25 4 6.25H20C20.5523 6.25 21 6.69772 21 7.25C21 7.80228 20.5523 8.25 20 8.25H18.7551L17.7098 20.6262C17.6442 21.403 16.9946 22 16.2151 22H12H7.7849C7.00541 22 6.35582 21.403 6.29022 20.6262L5.24493 8.25Z" fill="#111111"/>
</svg>
