<svg width="24" height="24" viewBox="0 0 24 24" fill="none" xmlns="http://www.w3.org/2000/svg">
<path fill-rule="evenodd" clip-rule="evenodd" d="M8.12536 4.90625C4.76183 4.90625 2.03516 7.63293 2.03516 10.9965C2.03516 13.1975 3.20275 15.1258 4.95234 16.1958C4.75039 16.6705 4.43652 17.2542 4.02483 17.6222C3.45386 18.1326 3.65523 18.6125 3.7826 18.8074C3.96966 19.0935 4.33627 19.1915 4.92452 18.9804L4.9426 18.9739C5.55925 18.7527 7.36546 18.1047 8.98775 17.0867H15.8765C19.2401 17.0867 21.9667 14.36 21.9667 10.9965C21.9667 7.63293 19.2401 4.90625 15.8765 4.90625H8.12536ZM8.67897 10.996C8.67897 11.6075 8.18322 12.1033 7.57166 12.1033C6.96011 12.1033 6.46436 11.6075 6.46436 10.996C6.46436 10.3844 6.96011 9.88867 7.57166 9.88867C8.18322 9.88867 8.67897 10.3844 8.67897 10.996ZM13.1082 10.996C13.1082 11.6075 12.6124 12.1033 12.0009 12.1033C11.3893 12.1033 10.8936 11.6075 10.8936 10.996C10.8936 10.3844 11.3893 9.88867 12.0009 9.88867C12.6124 9.88867 13.1082 10.3844 13.1082 10.996ZM16.4301 12.1033C17.0416 12.1033 17.5374 11.6075 17.5374 10.996C17.5374 10.3844 17.0416 9.88867 16.4301 9.88867C15.8185 9.88867 15.3228 10.3844 15.3228 10.996C15.3228 11.6075 15.8185 12.1033 16.4301 12.1033Z" fill="#111111"/>
</svg>
