<svg width="24" height="24" viewBox="0 0 24 24" fill="none" xmlns="http://www.w3.org/2000/svg">
<path fill-rule="evenodd" clip-rule="evenodd" d="M12 3C9.23858 3 7 5.23858 7 8V9.65625H6.5C5.67157 9.65625 5 10.3278 5 11.1562V19.1562C5 19.9847 5.67157 20.6562 6.5 20.6562H17.5C18.3284 20.6562 19 19.9847 19 19.1562V11.1562C19 10.3278 18.3284 9.65625 17.5 9.65625H9V8C9 6.34315 10.3431 5 12 5C13.6569 5 15 6.34315 15 8H17C17 5.23858 14.7614 3 12 3ZM12.75 15.2089C13.1082 14.9675 13.3438 14.5581 13.3438 14.0938C13.3438 13.3516 12.7421 12.75 12 12.75C11.2579 12.75 10.6562 13.3516 10.6562 14.0938C10.6562 14.5581 10.8918 14.9675 11.25 15.2089V17.0938C11.25 17.508 11.5858 17.8438 12 17.8438C12.4142 17.8438 12.75 17.508 12.75 17.0938V15.2089Z" fill="#111111"/>
</svg>
