<svg width="24" height="24" viewBox="0 0 24 24" fill="none" xmlns="http://www.w3.org/2000/svg">
<path fill-rule="evenodd" clip-rule="evenodd" d="M2.75568 9.79946C4.13021 8.50129 6.68415 6.83197 9.91942 6.32887C13.1079 5.83304 17.049 6.45323 21.314 9.85928C21.7887 10.2384 22.4808 10.1609 22.8599 9.68618C23.239 9.21147 23.1615 8.51931 22.6868 8.1402C17.9518 4.35876 13.3929 3.56227 9.58137 4.15499C5.81664 4.74043 2.87058 6.66486 1.24511 8.20003C0.803437 8.61716 0.783546 9.31336 1.20068 9.75503C1.61781 10.1967 2.31401 10.2166 2.75568 9.79946ZM5.63287 12.9001C6.6167 12.2088 8.33068 11.1874 10.5199 10.8461C12.6734 10.5104 15.3623 10.8192 18.3744 12.9045C18.8738 13.2503 19.5591 13.1257 19.9049 12.6262C20.2507 12.1267 20.1261 11.4414 19.6266 11.0956C16.1387 8.6809 12.8776 8.25196 10.181 8.67236C7.52028 9.08718 5.48427 10.3158 4.3681 11.1C3.87101 11.4492 3.75118 12.1353 4.10043 12.6324C4.44969 13.1295 5.13579 13.2493 5.63287 12.9001ZM11.413 15.1202C10.1035 15.2248 9.14561 15.7078 8.79246 16.0743C8.3709 16.5118 7.67454 16.5246 7.23709 16.1031C6.79964 15.6815 6.78676 14.9852 7.20832 14.5477C8.05517 13.6689 9.59728 13.0582 11.2378 12.9272C12.9272 12.7923 14.9002 13.1474 16.6485 14.4222C17.1394 14.7801 17.2471 15.4682 16.8892 15.9591C16.5313 16.45 15.8432 16.5577 15.3523 16.1998C14.1006 15.2871 12.6736 15.0196 11.413 15.1202ZM12.0005 20C12.8289 20 13.5005 19.3284 13.5005 18.5C13.5005 17.6716 12.8289 17 12.0005 17C11.1721 17 10.5005 17.6716 10.5005 18.5C10.5005 19.3284 11.1721 20 12.0005 20Z" fill="#111111"/>
</svg>
