<svg width="24" height="24" viewBox="0 0 24 24" fill="none" xmlns="http://www.w3.org/2000/svg">
<path fill-rule="evenodd" clip-rule="evenodd" d="M12.0003 2.8125C11.0614 2.8125 10.3003 3.57362 10.3003 4.5125V5.31927C9.74511 5.52692 9.14657 5.85526 8.60967 6.35929C7.07842 7.79679 6.84405 9.45305 6.85967 10.3905C6.86274 10.575 6.87489 10.7624 6.88718 10.9521C6.93737 11.727 6.99006 12.5404 6.43779 13.3437C6.19485 13.697 5.97727 13.9294 5.79678 14.1222C5.4665 14.475 5.2604 14.6952 5.25029 15.2812C5.23467 16.1874 5.84404 16.7812 6.43779 16.8593H12.0002H12.0003H17.5627C18.1564 16.7812 18.7658 16.1874 18.7502 15.2812C18.7401 14.6952 18.534 14.475 18.2037 14.1222C18.0232 13.9294 17.8056 13.697 17.5627 13.3437C17.0104 12.5404 17.0631 11.727 17.1133 10.9521C17.1256 10.7624 17.1377 10.575 17.1408 10.3905C17.1564 9.45305 16.9221 7.79679 15.3908 6.35929C14.8539 5.85529 14.2555 5.52696 13.7003 5.31931V4.5125C13.7003 3.57362 12.9392 2.8125 12.0003 2.8125ZM11.9927 21C13.2655 21 14.2974 19.9682 14.2974 18.6953H11.9927H9.68799C9.68799 19.9682 10.7198 21 11.9927 21Z" fill="#111111"/>
</svg>
