<svg width="24" height="24" viewBox="0 0 24 24" fill="none" xmlns="http://www.w3.org/2000/svg">
<path fill-rule="evenodd" clip-rule="evenodd" d="M12 22C17.5228 22 22 17.5228 22 12C22 6.47715 17.5228 2 12 2C6.47715 2 2 6.47715 2 12C2 17.5228 6.47715 22 12 22ZM11.7221 6.72257C12.1517 6.293 12.8481 6.293 13.2777 6.72257L17.7777 11.2226C18.2073 11.6522 18.2073 12.3486 17.7777 12.7782L13.2777 17.2782C12.8481 17.7078 12.1517 17.7078 11.7221 17.2782C11.2925 16.8486 11.2925 16.1522 11.7221 15.7226L14.3443 13.1004H6.9999C6.39239 13.1004 5.8999 12.6079 5.8999 12.0004C5.8999 11.3929 6.39239 10.9004 6.9999 10.9004H14.3443L11.7221 8.27821C11.2925 7.84863 11.2925 7.15215 11.7221 6.72257Z" fill="#1677FF"/>
</svg>
