<svg width="24" height="24" viewBox="0 0 24 24" fill="none" xmlns="http://www.w3.org/2000/svg">
<path fill-rule="evenodd" clip-rule="evenodd" d="M19.8 12C19.8 16.3078 16.3078 19.8 12 19.8C7.69218 19.8 4.2 16.3078 4.2 12C4.2 7.69218 7.69218 4.2 12 4.2C16.3078 4.2 19.8 7.69218 19.8 12ZM22 12C22 17.5228 17.5228 22 12 22C6.47715 22 2 17.5228 2 12C2 6.47715 6.47715 2 12 2C17.5228 2 22 6.47715 22 12ZM16.7864 10.7694C17.2111 10.335 17.2033 9.63861 16.7689 9.21388C16.3346 8.78916 15.6381 8.79699 15.2134 9.23136L11.111 13.427L8.78641 11.0495C8.36169 10.6152 7.66525 10.6073 7.23087 11.0321C6.7965 11.4568 6.78867 12.1532 7.2134 12.5876L10.3245 15.7694C10.5315 15.9811 10.815 16.1004 11.111 16.1004C11.407 16.1004 11.6906 15.9811 11.8975 15.7694L16.7864 10.7694Z" fill="#1677FF"/>
</svg>
