<svg width="24" height="24" viewBox="0 0 24 24" fill="none" xmlns="http://www.w3.org/2000/svg">
<path fill-rule="evenodd" clip-rule="evenodd" d="M12 22C17.5228 22 22 17.5228 22 12C22 6.47715 17.5228 2 12 2C6.47715 2 2 6.47715 2 12C2 17.5228 6.47715 22 12 22ZM11.9999 6.40039C12.6074 6.40039 13.0999 6.89288 13.0999 7.50039V12.5004C13.0999 13.1079 12.6074 13.6004 11.9999 13.6004C11.3924 13.6004 10.8999 13.1079 10.8999 12.5004V7.50039C10.8999 6.89288 11.3924 6.40039 11.9999 6.40039ZM13.0999 16.1C13.0999 16.7075 12.6074 17.2 11.9999 17.2C11.3924 17.2 10.8999 16.7075 10.8999 16.1C10.8999 15.4925 11.3924 15 11.9999 15C12.6074 15 13.0999 15.4925 13.0999 16.1Z" fill="#1677FF"/>
</svg>
