<svg width="24" height="24" viewBox="0 0 24 24" fill="none" xmlns="http://www.w3.org/2000/svg">
<path fill-rule="evenodd" clip-rule="evenodd" d="M10.5846 20.7888C11.0893 21.2599 11.8803 21.2326 12.3513 20.7279C12.8224 20.2232 12.7951 19.4322 12.2904 18.9612L6.17128 13.25L21 13.25C21.6904 13.25 22.25 12.6904 22.25 12C22.25 11.3097 21.6904 10.75 21 10.75L6.17127 10.75L12.2904 5.03882C12.7951 4.56778 12.8224 3.77679 12.3513 3.27211C11.8803 2.76742 11.0893 2.74014 10.5846 3.21119L2.1471 11.0862C1.89381 11.3226 1.75 11.6535 1.75 12C1.75 12.3465 1.89381 12.6774 2.1471 12.9138L10.5846 20.7888Z" fill="#FF3C14"/>
</svg>
