<svg width="24" height="24" viewBox="0 0 24 24" fill="none" xmlns="http://www.w3.org/2000/svg">
<path fill-rule="evenodd" clip-rule="evenodd" d="M6.24072 14.3489L6.94337 13.6462L6.94784 13.6418L15.7867 4.80297C16.7239 3.86571 18.2435 3.86571 19.1808 4.80297C20.118 5.74023 20.118 7.25982 19.1808 8.19708L18.8315 8.54634C18.8301 8.54777 18.8286 8.5492 18.8272 8.55064L10.3419 17.0359C9.99046 17.3874 9.42061 17.3874 9.06914 17.0359C8.71767 16.6844 8.71767 16.1146 9.06914 15.7631L16.4024 8.42986C16.832 8.00028 16.832 7.3038 16.4024 6.87422C15.9728 6.44464 15.2763 6.44464 14.8468 6.87422L7.5135 14.2075C6.30288 15.4181 6.30288 17.3809 7.5135 18.5916C8.72413 19.8022 10.6869 19.8022 11.8976 18.5916L13.21 17.2791C13.2114 17.2778 13.2128 17.2764 13.2142 17.275L20.3828 10.1063L20.7364 9.75272C22.5328 7.9563 22.5328 5.04375 20.7364 3.24733C18.94 1.45092 16.0275 1.45092 14.231 3.24733L11.1512 6.32716L11.1467 6.33167L4.68509 12.7933C2.30289 15.1755 2.30289 19.0378 4.68509 21.42C7.06728 23.8022 10.9296 23.8022 13.3118 21.42L21.09 13.6418C21.5195 13.2122 21.5195 12.5157 21.09 12.0862C20.6604 11.6566 19.9639 11.6566 19.5343 12.0862L11.7562 19.8643C10.2331 21.3874 7.76377 21.3874 6.24072 19.8643C4.71768 18.3413 4.71768 15.8719 6.24072 14.3489Z" fill="#FF3C14"/>
</svg>
