<svg width="24" height="24" viewBox="0 0 24 24" fill="none" xmlns="http://www.w3.org/2000/svg">
<path fill-rule="evenodd" clip-rule="evenodd" d="M12 22C17.5228 22 22 17.5228 22 12C22 6.47715 17.5228 2 12 2C6.47715 2 2 6.47715 2 12C2 17.5228 6.47715 22 12 22ZM7.22208 7.22257C7.65166 6.793 8.34814 6.793 8.77772 7.22257L11.9999 10.4448L15.2221 7.2226C15.6517 6.79303 16.3482 6.79303 16.7777 7.2226C17.2073 7.65218 17.2073 8.34866 16.7777 8.77824L13.5556 12.0004L16.7777 15.2226C17.2073 15.6522 17.2073 16.3487 16.7777 16.7782C16.3482 17.2078 15.6517 17.2078 15.2221 16.7782L11.9999 13.5561L8.77773 16.7783C8.34815 17.2078 7.65167 17.2078 7.22209 16.7783C6.79252 16.3487 6.79252 15.6522 7.22209 15.2226L10.4443 12.0004L7.22208 8.77821C6.79251 8.34863 6.79251 7.65215 7.22208 7.22257Z" fill="#FF3C14"/>
</svg>
