<svg width="24" height="24" viewBox="0 0 24 24" fill="none" xmlns="http://www.w3.org/2000/svg">
<path fill-rule="evenodd" clip-rule="evenodd" d="M16.6938 3.82522C16.8891 3.62996 17.2057 3.62996 17.4009 3.82522L20.1463 6.57063C20.3416 6.76589 20.3416 7.08248 20.1463 7.27774L18.6956 8.72846C18.5003 8.92372 18.1838 8.92372 17.9885 8.72846L15.2431 5.98304C15.0478 5.78778 15.0478 5.4712 15.2431 5.27594L16.6938 3.82522ZM10.7392 16.9737C10.7389 16.9734 10.7384 16.9732 10.738 16.9733L7.47277 17.3425C7.15359 17.3786 6.88366 17.1087 6.91975 16.7895L7.289 13.5243C7.28902 13.5241 7.289 13.5239 7.28894 13.5237C7.28888 13.5235 7.28876 13.5233 7.2886 13.5231C7.28806 13.5226 7.28806 13.5217 7.2886 13.5212L7.28932 13.5204L7.28946 13.5202L7.28952 13.5196C7.28954 13.5194 7.28979 13.5193 7.28994 13.5195H7.29029L13.8881 6.92167C14.0834 6.72641 14.3999 6.72641 14.5952 6.92167L17.3406 9.66708C17.5359 9.86234 17.5359 10.1789 17.3406 10.3742L10.7428 16.972V16.9723L10.7429 16.9726L10.7427 16.9728L10.7421 16.9728L10.7418 16.973L10.7411 16.9737C10.7406 16.9742 10.7397 16.9742 10.7392 16.9737ZM4 18.9199C3.44772 18.9199 3 19.3676 3 19.9199C3 20.4722 3.44772 20.9199 4 20.9199H13.5337C14.086 20.9199 14.5337 20.4722 14.5337 19.9199C14.5337 19.3676 14.086 18.9199 13.5337 18.9199H4Z" fill="#FF3C14"/>
</svg>
