<svg width="24" height="24" viewBox="0 0 24 24" fill="none" xmlns="http://www.w3.org/2000/svg">
<path fill-rule="evenodd" clip-rule="evenodd" d="M10.9984 14.4004C11.606 14.4004 12.0984 14.8929 12.0984 15.5004V18.5004C12.0984 19.9363 10.9344 21.1004 9.49844 21.1004H4.49844C3.0625 21.1004 1.89844 19.9363 1.89844 18.5004V5.50039C1.89844 4.06445 3.0625 2.90039 4.49844 2.90039H9.49844C10.9344 2.90039 12.0984 4.06445 12.0984 5.50039V8.00039C12.0984 8.6079 11.606 9.10039 10.9984 9.10039C10.3909 9.10039 9.89844 8.6079 9.89844 8.00039V5.50039C9.89844 5.27948 9.71935 5.10039 9.49844 5.10039L4.49844 5.10039C4.27752 5.10039 4.09844 5.27948 4.09844 5.50039L4.09844 18.5004C4.09844 18.7213 4.27752 18.9004 4.49844 18.9004H9.49844C9.71935 18.9004 9.89844 18.7213 9.89844 18.5004V15.5004C9.89844 14.8929 10.3909 14.4004 10.9984 14.4004ZM15.7624 6.18278C16.214 5.77637 16.9095 5.81298 17.3159 6.26454L21.8159 11.2645C22.2073 11.6994 22.1898 12.3645 21.7761 12.7782L17.2761 17.2782C16.8465 17.7078 16.15 17.7078 15.7204 17.2782C15.2909 16.8486 15.2909 16.1522 15.7204 15.7226L18.3426 13.1004L9.99824 13.1004C9.39073 13.1004 8.89824 12.6079 8.89824 12.0004C8.89824 11.3929 9.39073 10.9004 9.99824 10.9004L18.5283 10.9004L15.6806 7.73626C15.2742 7.2847 15.3108 6.58918 15.7624 6.18278Z" fill="#FF3C14"/>
</svg>
