<svg width="24" height="24" viewBox="0 0 24 24" fill="none" xmlns="http://www.w3.org/2000/svg">
<path fill-rule="evenodd" clip-rule="evenodd" d="M18.9375 9.43457C18.9375 10.929 18.4655 12.3132 17.6625 13.4462L14.9959 17.459L12.6583 20.9743C12.3418 21.4503 11.6426 21.4503 11.326 20.9743L6.29016 13.401C6.23226 13.3179 6.17613 13.2335 6.12182 13.1479L5.98479 12.9418L5.99629 12.942C5.39283 11.9126 5.04688 10.714 5.04688 9.43457C5.04688 5.59878 8.1564 2.48926 11.9922 2.48926C15.828 2.48926 18.9375 5.59878 18.9375 9.43457ZM11.9922 11.6269C13.203 11.6269 14.1845 10.6453 14.1845 9.43454C14.1845 8.22374 13.203 7.24219 11.9922 7.24219C10.7814 7.24219 9.7998 8.22374 9.7998 9.43454C9.7998 10.6453 10.7814 11.6269 11.9922 11.6269Z" fill="#FF3C14"/>
</svg>
