<svg width="24" height="24" viewBox="0 0 24 24" fill="none" xmlns="http://www.w3.org/2000/svg">
<path fill-rule="evenodd" clip-rule="evenodd" d="M18.8249 2.47154C18.7701 1.78336 18.1678 1.26993 17.4796 1.32475C16.7914 1.37958 16.278 1.9819 16.3328 2.67007L16.4287 3.87413C15.7126 3.48141 14.9365 3.18015 14.1153 2.98746C13.6477 2.87775 13.1662 2.80339 12.6736 2.76729C7.59619 2.39514 3.17847 6.20948 2.80632 11.2869C2.43418 16.3642 6.24852 20.7819 11.3259 21.1541C16.4033 21.5262 20.821 17.7119 21.1931 12.6345C21.2097 12.4091 21.2179 12.1847 21.2181 11.9617C21.2188 11.2714 20.6598 10.7112 19.9694 10.7105C19.2791 10.7098 18.7188 11.2689 18.7181 11.9592C18.718 12.1221 18.7119 12.2863 18.6998 12.4518C18.4286 16.1521 15.209 18.932 11.5086 18.6608C7.80828 18.3896 5.02842 15.17 5.29964 11.4696C5.57086 7.76925 8.79046 4.98938 12.4908 5.2606C12.8521 5.28708 13.2038 5.3415 13.5442 5.42136C13.7382 5.46689 13.9288 5.52074 14.1155 5.58249L13.8309 5.60517C13.1427 5.65999 12.6293 6.26231 12.6841 6.95048C12.7389 7.63866 13.3412 8.15209 14.0294 8.09727L17.994 7.78143C18.3244 7.75511 18.6309 7.59858 18.846 7.34628C19.0611 7.09399 19.1671 6.76659 19.1408 6.43612L18.8249 2.47154Z" fill="#FF3C14"/>
</svg>
