<svg width="24" height="24" viewBox="0 0 24 24" fill="none" xmlns="http://www.w3.org/2000/svg">
<path fill-rule="evenodd" clip-rule="evenodd" d="M6.72062 8.27741C6.29104 7.84784 6.29104 7.15135 6.72062 6.72178L11.2206 2.22178C11.6502 1.7922 12.3467 1.7922 12.7763 2.22178L17.2763 6.72178C17.7058 7.15136 17.7058 7.84784 17.2763 8.27742C16.8467 8.70699 16.1502 8.70699 15.7206 8.27741L13.0984 5.65523L13.0984 14.9996C13.0984 15.6071 12.606 16.0996 11.9984 16.0996C11.3909 16.0996 10.8984 15.6071 10.8984 14.9996L10.8984 5.65524L8.27625 8.27741C7.84668 8.70699 7.1502 8.70699 6.72062 8.27741ZM3.99844 13.9004C4.60595 13.9004 5.09844 14.3929 5.09844 15.0004V18.9004H18.8984V15.0004C18.8984 14.3929 19.3909 13.9004 19.9984 13.9004C20.606 13.9004 21.0984 14.3929 21.0984 15.0004V19.0004C21.0984 20.1602 20.1582 21.1004 18.9984 21.1004H4.99844C3.83864 21.1004 2.89844 20.1602 2.89844 19.0004V15.0004C2.89844 14.3929 3.39092 13.9004 3.99844 13.9004Z" fill="#FF3C14"/>
</svg>
