<svg width="24" height="24" viewBox="0 0 24 24" fill="none" xmlns="http://www.w3.org/2000/svg">
<path fill-rule="evenodd" clip-rule="evenodd" d="M16.5 10.5C16.5 13.8137 13.8137 16.5 10.5 16.5C7.18629 16.5 4.5 13.8137 4.5 10.5C4.5 7.18629 7.18629 4.5 10.5 4.5C13.8137 4.5 16.5 7.18629 16.5 10.5ZM15.5615 17.3294C14.1475 18.3791 12.3963 19 10.5 19C5.80558 19 2 15.1944 2 10.5C2 5.80558 5.80558 2 10.5 2C15.1944 2 19 5.80558 19 10.5C19 12.3964 18.379 14.1477 17.3292 15.5617L21.4905 19.7229C21.9786 20.2111 21.9786 21.0025 21.4905 21.4907C21.0023 21.9788 20.2109 21.9788 19.7227 21.4907L15.5615 17.3294Z" fill="#FF3C14"/>
</svg>
